# This file uses meters as units for non-parametric coordinates.

mtllib HallLightFixtureV01.mtl
g default
v -231.218536 533.646423 2900.129395
v -596.978516 533.646423 2900.129395
v -231.218536 533.646423 2982.482422
v -596.978516 533.646423 2982.482422
v -236.218536 533.646423 2905.129395
v -591.978516 533.646423 2905.129395
v -236.218536 533.646423 2977.482422
v -591.978516 533.646423 2977.482422
v -236.218536 536.646423 2905.129395
v -591.978516 536.646423 2905.129395
v -236.218536 536.646423 2977.482422
v -591.978516 536.646423 2977.482422
v -596.978516 543.646423 2900.129395
v -231.218536 543.646423 2900.129395
v -231.218536 543.646423 2982.482422
v -596.978516 543.646423 2982.482422
vt 0.719039 0.007777
vt 0.719039 0.930008
vt 0.531480 0.930008
vt 0.531480 0.007777
vt 0.239405 0.000000
vt 0.287668 0.948154
vt 0.239405 0.974077
vt 0.239405 0.025923
vt 0.501150 0.948154
vt 0.025923 0.974077
vt 0.501150 0.000000
vt 0.025923 0.025923
vt 0.719039 0.937785
vt 0.726816 0.007777
vt 0.523703 0.930008
vt 0.531480 0.000000
vt 0.226444 0.038884
vt 0.038884 0.038884
vt 0.038884 0.961116
vt 0.226444 0.961116
vt 0.287668 0.000000
vt 0.000000 0.025923
vt 0.025923 1.000000
vt 0.265328 0.974077
vt 0.025923 0.000000
vt 0.000000 0.974077
vt 0.265328 0.025923
vt 0.239405 1.000000
vt 0.523703 0.007777
vt 0.531480 0.937785
vt 0.719039 0.000000
vt 0.726816 0.930008
vn 0.000000 -1.000000 0.000000
vn 0.000000 -1.000000 0.000000
vn 0.000000 -1.000000 0.000000
vn 0.000000 -1.000000 0.000000
vn 0.000000 0.000000 -1.000000
vn 0.000000 0.000000 -1.000000
vn 0.000000 0.000000 -1.000000
vn 0.000000 0.000000 -1.000000
vn 1.000000 0.000000 0.000000
vn 1.000000 0.000000 0.000000
vn 1.000000 0.000000 0.000000
vn 1.000000 0.000000 0.000000
vn 0.000000 0.000000 1.000000
vn 0.000000 0.000000 1.000000
vn 0.000000 0.000000 1.000000
vn 0.000000 0.000000 1.000000
vn -1.000000 0.000000 0.000000
vn -1.000000 0.000000 0.000000
vn -1.000000 0.000000 0.000000
vn -1.000000 0.000000 0.000000
vn 0.000000 -1.000000 0.000007
vn 0.000000 -1.000000 0.000007
vn 0.000000 -1.000000 0.000007
vn 0.000000 -1.000000 0.000007
vn 0.000000 -1.000000 0.000000
vn 0.000000 -1.000000 0.000000
vn 0.000000 -1.000000 0.000000
vn 0.000000 -1.000000 0.000000
vn 0.000000 -1.000000 -0.000007
vn 0.000000 -1.000000 -0.000007
vn 0.000000 -1.000000 -0.000007
vn 0.000000 -1.000000 -0.000007
vn 0.000000 -1.000000 0.000000
vn 0.000000 -1.000000 0.000000
vn 0.000000 -1.000000 0.000000
vn 0.000000 -1.000000 0.000000
vn 0.000000 0.000000 1.000000
vn 0.000000 0.000000 1.000000
vn 0.000000 0.000000 1.000000
vn 0.000000 0.000000 1.000000
vn -1.000000 0.000000 0.000000
vn -1.000000 0.000000 0.000000
vn -1.000000 0.000000 0.000000
vn -1.000000 0.000000 0.000000
vn 0.000000 0.000000 -1.000000
vn 0.000000 0.000000 -1.000000
vn 0.000000 0.000000 -1.000000
vn 0.000000 0.000000 -1.000000
vn 1.000000 0.000000 0.000000
vn 1.000000 0.000000 0.000000
vn 1.000000 0.000000 0.000000
vn 1.000000 0.000000 0.000000
vn 0.000000 1.000000 0.000000
vn 0.000000 1.000000 0.000000
vn 0.000000 1.000000 0.000000
vn 0.000000 1.000000 0.000000
s off
g HallLightFixtureV01 CeilingTiles
usemtl initialShadingGroup
f 10/1/1 9/2/2 11/3/3 12/4/4
f 13/27/5 14/24/6 1/7/7 2/8/8
f 14/28/9 15/23/10 3/10/11 1/7/12
f 15/26/13 16/22/14 4/12/15 3/10/16
f 16/25/17 13/5/18 2/8/19 4/12/20
f 2/8/21 1/7/22 5/20/23 6/17/24
f 1/7/25 3/10/26 7/19/27 5/20/28
f 3/10/29 4/12/30 8/18/31 7/19/32
f 4/12/33 2/8/34 6/17/35 8/18/36
f 6/14/37 5/32/38 9/2/39 10/1/40
f 5/13/41 7/30/42 11/3/43 9/2/44
f 7/15/45 8/29/46 12/4/47 11/3/48
f 8/16/49 6/31/50 10/1/51 12/4/52
f 14/6/53 13/21/54 16/11/55 15/9/56
